<svg id="Layer_1" data-name="Layer 1" xmlns="http://www.w3.org/2000/svg" viewBox="0 0 24 24"><defs><style>.cls-1{fill:none;}.cls-2{fill:#00c991;}</style></defs><g id="thumb_up-black-24dp" data-name="thumb up-black-24dp"><path id="패스_135" data-name="패스 135" class="cls-1" d="M24,0H0V24H24Zm0,0H0V24H24Z"/><path id="패스_136" data-name="패스 136" class="cls-2" d="M15,21H6a2,2,0,0,1-1.85-1.22l-3-7A2,2,0,0,1,1,12V10A2,2,0,0,1,3,8H9.3l-1-4.57,0-.32a1.5,1.5,0,0,1,.44-1.06L9.82,1l6.62,6.59A2,2,0,0,1,17,9V19A2,2,0,0,1,15,21ZM15,9,10.66,4.66,12,10H3v2l3,7h9Zm8,0H19V21h4Z"/></g></svg>