<svg id="Layer_1" data-name="Layer 1" xmlns="http://www.w3.org/2000/svg" viewBox="0 0 280 48"><defs><style>.cls-1{fill:#fff;}.cls-2{fill:none;stroke:#4be88d;stroke-width:1.5px;}.cls-3{isolation:isolate;font-size:16px;fill:#4be88d;font-family:NotoSansCJKkr-Bold-KSCpc-EUC-H, Noto Sans CJK KR;}</style></defs><g id="사각형_1620" data-name="사각형 1620"><path class="cls-1" d="M24,0H256a24,24,0,0,1,24,24h0a24,24,0,0,1-24,24H24A24,24,0,0,1,0,24H0A24,24,0,0,1,24,0Z"/><path class="cls-2" d="M24,.75H256A23.25,23.25,0,0,1,279.25,24h0A23.25,23.25,0,0,1,256,47.25H24A23.25,23.25,0,0,1,.75,24h0A23.25,23.25,0,0,1,24,.75Z"/></g><g id="회원가입"><text class="cls-3" transform="translate(111 31)">회원가입</text></g></svg>