<svg id="Layer_1" data-name="Layer 1" xmlns="http://www.w3.org/2000/svg" viewBox="0 0 56 56"><defs><style>.cls-1{fill:#4be88d;}.cls-2{fill:none;}.cls-3{fill:#fff;}</style></defs><g id="그룹_430" data-name="그룹 430"><circle id="타원_40-2" data-name="타원 40-2" class="cls-1" cx="28" cy="28" r="28"/><g id="add_a_photo-black-24dp" data-name="add a photo-black-24dp"><path id="패스_184" data-name="패스 184" class="cls-2" d="M16,16H40V40H16Z"/><path id="패스_185" data-name="패스 185" class="cls-3" d="M37,22H33.83L32,20H26v2h5.12L33,24h4V36H21V27H19v9a2,2,0,0,0,2,2H37a2,2,0,0,0,2-2V24A2,2,0,0,0,37,22ZM24,29.47a5,5,0,0,0,10,0,5.66,5.66,0,0,0-.14-1.16A4.92,4.92,0,0,0,29,24.47,5,5,0,0,0,24,29.47Zm5-3a3,3,0,1,1-3,3A3,3,0,0,1,29,26.47ZM21,22h3V20H21V17H19v3H16v2h3v3h2Z"/></g></g></svg>