<svg id="Layer_1" data-name="Layer 1" xmlns="http://www.w3.org/2000/svg" viewBox="0 0 24 24"><defs><style>.cls-1{fill:none;}</style></defs><g id="settings-black-24dp"><path id="패스_139" data-name="패스 139" class="cls-1" d="M0,0H24V24H0Z"/><path id="패스_140" data-name="패스 140" d="M19.43,13a7.93,7.93,0,0,0,.07-1,7.93,7.93,0,0,0-.07-1l2.11-1.65a.51.51,0,0,0,.12-.64l-2-3.46A.5.5,0,0,0,19.22,5a.47.47,0,0,0-.17,0l-2.49,1a7.52,7.52,0,0,0-1.69-1l-.38-2.65A.49.49,0,0,0,14,2H10a.49.49,0,0,0-.49.42L9.13,5.07a7.52,7.52,0,0,0-1.69,1L5,5.05,4.77,5a.5.5,0,0,0-.43.25l-2,3.46a.48.48,0,0,0,.12.64L4.57,11a7.93,7.93,0,0,0-.07,1,7.93,7.93,0,0,0,.07,1L2.46,14.63a.51.51,0,0,0-.12.64l2,3.46a.5.5,0,0,0,.44.25A.47.47,0,0,0,5,19l2.49-1a7.52,7.52,0,0,0,1.69,1l.38,2.65A.49.49,0,0,0,10,22h4a.49.49,0,0,0,.49-.42l.38-2.65a7.52,7.52,0,0,0,1.69-1l2.49,1a.57.57,0,0,0,.18,0,.5.5,0,0,0,.43-.25l2-3.46a.51.51,0,0,0-.12-.64Zm-2-1.71a6,6,0,0,1,.05.73c0,.21,0,.43-.05.73l-.14,1.13.89.7,1.08.84-.7,1.21-1.27-.51-1-.42-.9.68a5.76,5.76,0,0,1-1.25.73l-1.06.43-.16,1.13L12.7,20H11.3l-.19-1.35L11,17.52l-1.06-.43a5.39,5.39,0,0,1-1.23-.71l-.91-.7-1.06.43-1.27.51-.7-1.21,1.08-.84.89-.7-.14-1.13c0-.31,0-.54,0-.74s0-.43,0-.73l.14-1.13-.89-.7L4.72,8.6l.7-1.21,1.27.51,1,.42.9-.68a5.76,5.76,0,0,1,1.25-.73l1.06-.43.16-1.13L11.3,4h1.39l.19,1.35L13,6.48l1.06.43a5.39,5.39,0,0,1,1.23.71l.91.7,1.06-.43,1.27-.51.7,1.21-1.07.85-.89.7ZM12,8a4,4,0,1,0,4,4A4,4,0,0,0,12,8Zm0,6a2,2,0,1,1,2-2A2,2,0,0,1,12,14Z"/></g></svg>